<svg xmlns="http://www.w3.org/2000/svg" version="1.1" xmlns:xlink="http://www.w3.org/1999/xlink" xmlns:svgjs="http://svgjs.dev/svgjs" width="1000" height="217" viewBox="0 0 1000 217"><g transform="matrix(1,0,0,1,-0.6060606060605096,0.09574202095512874)"><svg viewBox="0 0 396 86" data-background-color="#ffffff" preserveAspectRatio="xMidYMid meet" height="217" width="1000" xmlns="http://www.w3.org/2000/svg" xmlns:xlink="http://www.w3.org/1999/xlink"><g id="tight-bounds" transform="matrix(1,0,0,1,0.23999999999995225,-0.037943842406178874)"><svg viewBox="0 0 395.52 86.07588768481237" height="86.07588768481237" width="395.52"><g><svg viewBox="0 0 530.7587286950859 115.50750586289446" height="86.07588768481237" width="395.52"><g transform="matrix(1,0,0,1,0,15.963772517954304)"><svg viewBox="0 0 395.52 83.57996082698585" height="83.57996082698585" width="395.52"><g id="textblocktransform"><svg viewBox="0 0 395.52 83.57996082698585" height="83.57996082698585" width="395.52" id="textblock"><g><svg viewBox="0 0 395.52 83.57996082698585" height="83.57996082698585" width="395.52"><g transform="matrix(1,0,0,1,0,0)"><svg width="395.52" viewBox="1.7 -37.7 229.73000000000002 48.550000000000004" height="83.57996082698585" data-palette-color="#338f47"><path d="M19.35 0L15.5 0Q11.5 0 8.4-1.68 5.3-3.35 3.5-6.23 1.7-9.1 1.7-12.8L1.7-12.8Q1.7-16.5 3.5-19.38 5.3-22.25 8.4-23.95 11.5-25.65 15.5-25.65L15.5-25.65 19.35-25.65 19.35-19.1 15.8-19.1Q13.85-19.1 12.45-18.28 11.05-17.45 10.28-16.03 9.5-14.6 9.5-12.8L9.5-12.8Q9.5-11 10.28-9.58 11.05-8.15 12.45-7.33 13.85-6.5 15.8-6.5L15.8-6.5 19.35-6.5 19.35 0ZM36.35 0.6L36.35 0.6Q32.4 0.6 29.25-1.15 26.1-2.9 24.27-5.95 22.45-9 22.45-12.8L22.45-12.8Q22.45-16.65 24.27-19.68 26.1-22.7 29.25-24.48 32.4-26.25 36.35-26.25L36.35-26.25Q40.3-26.25 43.42-24.48 46.55-22.7 48.37-19.68 50.2-16.65 50.2-12.8L50.2-12.8Q50.2-9 48.37-5.95 46.55-2.9 43.4-1.15 40.25 0.6 36.35 0.6ZM36.35-6.15L36.35-6.15Q38.2-6.15 39.55-7.05 40.9-7.95 41.65-9.45 42.4-10.95 42.4-12.85L42.4-12.85Q42.4-14.7 41.65-16.2 40.9-17.7 39.55-18.6 38.2-19.5 36.35-19.5L36.35-19.5Q34.5-19.5 33.12-18.6 31.75-17.7 31-16.2 30.25-14.7 30.25-12.85L30.25-12.85Q30.25-10.95 31-9.45 31.75-7.95 33.12-7.05 34.5-6.15 36.35-6.15ZM62.6 0L54.8 0 54.8-25.65 62.6-25.65 62.6 0ZM58.7-28.55L58.7-28.55Q56.85-28.55 55.5-29.9 54.15-31.25 54.15-33.1L54.15-33.1Q54.15-34.95 55.5-36.33 56.85-37.7 58.7-37.7L58.7-37.7Q60.55-37.7 61.9-36.33 63.25-34.95 63.25-33.1L63.25-33.1Q63.25-31.25 61.9-29.9 60.55-28.55 58.7-28.55ZM76.04 0L68.29 0 68.29-14.75Q68.29-17.95 69.84-20.55 71.39-23.15 74.27-24.7 77.14-26.25 81.09-26.25L81.09-26.25Q85.09-26.25 87.92-24.7 90.74-23.15 92.24-20.55 93.74-17.95 93.74-14.75L93.74-14.75 93.74 0 85.99 0 85.99-14.55Q85.99-15.9 85.34-17.03 84.69-18.15 83.57-18.82 82.44-19.5 81.04-19.5L81.04-19.5Q79.59-19.5 78.47-18.82 77.34-18.15 76.69-17.03 76.04-15.9 76.04-14.55L76.04-14.55 76.04 0ZM113.09-26.25L113.09-26.25Q108.94-26.25 105.84-24.55 102.74-22.85 101.04-19.7 99.34-16.55 99.34-12.35L99.34-12.35 99.34 10.85 107.09 10.85 107.09-2.8 107.24-2.8Q107.99-1.75 109.12-0.98 110.24-0.2 111.62 0.2 112.99 0.6 114.54 0.6L114.54 0.6Q118.19 0.6 120.94-1.05 123.69-2.7 125.27-5.6 126.84-8.5 126.84-12.4L126.84-12.4Q126.84-15.4 125.89-17.95 124.94-20.5 123.17-22.38 121.39-24.25 118.87-25.25 116.34-26.25 113.09-26.25ZM113.09-19.55L113.09-19.55Q114.89-19.55 116.19-18.68 117.49-17.8 118.22-16.28 118.94-14.75 118.94-12.85L118.94-12.85Q118.94-10.95 118.22-9.45 117.49-7.95 116.19-7.08 114.89-6.2 113.09-6.2L113.09-6.2Q111.29-6.2 109.97-7.08 108.64-7.95 107.94-9.45 107.24-10.95 107.24-12.85L107.24-12.85Q107.24-14.75 107.94-16.28 108.64-17.8 109.97-18.68 111.29-19.55 113.09-19.55ZM144.24 0.6L144.24 0.6Q140.29 0.6 137.41-0.93 134.54-2.45 132.99-5.08 131.44-7.7 131.44-10.9L131.44-10.9 131.44-25.65 139.19-25.65 139.19-11.1Q139.19-9.75 139.84-8.63 140.49-7.5 141.61-6.83 142.74-6.15 144.19-6.15L144.19-6.15Q145.59-6.15 146.71-6.83 147.84-7.5 148.49-8.63 149.14-9.75 149.14-11.1L149.14-11.1 149.14-25.65 156.89-25.65 156.89-10.9Q156.89-7.7 155.39-5.08 153.89-2.45 151.06-0.93 148.24 0.6 144.24 0.6ZM170.24 0L162.49 0 162.49-18.1Q162.49-21.6 164.49-23.6 166.49-25.6 170.04-25.6L170.04-25.6 177.49-25.6 177.49-19.3 171.94-19.3Q171.24-19.3 170.74-18.82 170.24-18.35 170.24-17.6L170.24-17.6 170.24 0ZM194.43 0L180.98 0 180.98-6.15 193.33-6.15Q193.83-6.15 194.23-6.38 194.63-6.6 194.88-7 195.13-7.4 195.13-7.85L195.13-7.85Q195.13-8.35 194.88-8.75 194.63-9.15 194.23-9.38 193.83-9.6 193.33-9.6L193.33-9.6 188.83-9.6Q186.33-9.6 184.31-10.43 182.28-11.25 181.11-13.03 179.93-14.8 179.93-17.65L179.93-17.65Q179.93-19.85 181.01-21.65 182.08-23.45 183.96-24.55 185.83-25.65 188.08-25.65L188.08-25.65 200.43-25.65 200.43-19.45 189.28-19.45Q188.58-19.45 188.11-19 187.63-18.55 187.63-17.9L187.63-17.9Q187.63-17.2 188.11-16.73 188.58-16.25 189.28-16.25L189.28-16.25 193.68-16.25Q196.48-16.25 198.51-15.43 200.53-14.6 201.66-12.8 202.78-11 202.78-8.15L202.78-8.15Q202.78-5.9 201.66-4.05 200.53-2.2 198.66-1.1 196.78 0 194.43 0L194.43 0ZM228.43 0L220.83 0Q216.48 0 213.18-1.63 209.88-3.25 208.06-6.13 206.23-9 206.23-12.8L206.23-12.8Q206.23-17 207.98-20 209.73-23 212.66-24.63 215.58-26.25 219.13-26.25L219.13-26.25Q223.18-26.25 225.91-24.55 228.63-22.85 230.03-19.93 231.43-17 231.43-13.25L231.43-13.25Q231.43-12.6 231.36-11.73 231.28-10.85 231.18-10.35L231.18-10.35 214.38-10.35Q214.68-9.05 215.53-8.15 216.38-7.25 217.68-6.83 218.98-6.4 220.58-6.4L220.58-6.4 228.43-6.4 228.43 0ZM214.18-15.2L214.18-15.2 223.93-15.2Q223.83-16 223.63-16.75 223.43-17.5 223.01-18.07 222.58-18.65 222.03-19.07 221.48-19.5 220.76-19.75 220.03-20 219.13-20L219.13-20Q217.98-20 217.08-19.6 216.18-19.2 215.58-18.53 214.98-17.85 214.66-16.98 214.33-16.1 214.18-15.2Z" opacity="1" transform="matrix(1,0,0,1,0,0)" fill="#338f47" class="wordmark-text-0" data-fill-palette-color="primary" id="text-0"></path></svg></g></svg></g></svg></g></svg></g><g transform="matrix(1,0,0,1,415.2512228321915,0)"><svg viewBox="0 0 115.50750586289446 115.50750586289446" height="115.50750586289446" width="115.50750586289446"><g><svg xmlns="http://www.w3.org/2000/svg" xmlns:xlink="http://www.w3.org/1999/xlink" version="1.1" x="0" y="0" viewBox="5 5 90 90" enable-background="new 0 0 100 100" xml:space="preserve" height="115.50750586289446" width="115.50750586289446" class="icon-icon-0" data-fill-palette-color="accent" id="icon-0"><g fill="#338f47" data-fill-palette-color="accent"><path d="M50 5C25.187 5 5 25.187 5 50c0 24.813 20.187 45 45 45 24.813 0 45-20.186 45-45C95 25.187 74.813 5 50 5zM50 92.387C26.627 92.387 7.612 73.372 7.612 50 7.612 26.628 26.627 7.613 50 7.613c23.373 0 42.388 19.015 42.388 42.387C92.388 73.372 73.372 92.387 50 92.387z" fill="#338f47" data-fill-palette-color="accent"></path><path d="M50 9.911C27.894 9.911 9.91 27.895 9.91 50c0 22.106 17.984 40.09 40.09 40.09 22.106 0 40.09-17.984 40.09-40.09C90.09 27.895 72.106 9.911 50 9.911zM11.984 46.238c0.046-0.474 0.475-0.824 0.941-0.776 0.474 0.046 0.821 0.468 0.775 0.941-0.018 0.186-0.035 0.374-0.051 0.56-0.037 0.451-0.414 0.792-0.858 0.792-0.023 0-0.048-0.001-0.071-0.003-0.475-0.039-0.828-0.454-0.789-0.929C11.947 46.628 11.965 46.432 11.984 46.238zM12.799 54.086c-0.443 0-0.819-0.34-0.857-0.789-0.017-0.196-0.033-0.393-0.046-0.59-0.031-0.473 0.328-0.885 0.802-0.918 0.467-0.029 0.886 0.328 0.918 0.803 0.012 0.187 0.027 0.373 0.042 0.559 0.04 0.474-0.311 0.892-0.785 0.932C12.848 54.085 12.824 54.086 12.799 54.086zM14.089 60.298c-0.072 0.018-0.145 0.027-0.217 0.027-0.383 0-0.733-0.256-0.834-0.645-0.049-0.189-0.097-0.378-0.144-0.569-0.114-0.462 0.168-0.929 0.631-1.043 0.462-0.117 0.928 0.168 1.042 0.63 0.045 0.184 0.091 0.366 0.139 0.549C14.826 59.707 14.55 60.177 14.089 60.298zM14.822 40.323c-0.049 0.182-0.098 0.364-0.145 0.546-0.1 0.389-0.451 0.646-0.833 0.646-0.071 0-0.144-0.009-0.217-0.028-0.46-0.12-0.738-0.59-0.618-1.05 0.049-0.191 0.099-0.379 0.151-0.568 0.125-0.458 0.602-0.73 1.058-0.604C14.676 39.39 14.947 39.864 14.822 40.323zM16.346 66.211c-0.116 0.053-0.237 0.077-0.356 0.077-0.328 0-0.641-0.188-0.785-0.504-0.081-0.179-0.161-0.359-0.239-0.538-0.19-0.437 0.01-0.945 0.447-1.134 0.436-0.187 0.944 0.011 1.134 0.447 0.074 0.171 0.15 0.342 0.227 0.511C16.97 65.504 16.779 66.015 16.346 66.211zM16.963 34.518c-0.08 0.169-0.158 0.34-0.236 0.513-0.144 0.318-0.457 0.507-0.786 0.507-0.118 0-0.238-0.023-0.354-0.076-0.433-0.195-0.627-0.705-0.431-1.14 0.081-0.179 0.163-0.358 0.247-0.537 0.202-0.43 0.715-0.615 1.146-0.413C16.98 33.573 17.165 34.087 16.963 34.518zM19.569 71.658c-0.148 0.1-0.316 0.148-0.483 0.148-0.276 0-0.547-0.133-0.714-0.378-0.11-0.161-0.219-0.325-0.327-0.488-0.261-0.397-0.151-0.932 0.247-1.193 0.398-0.258 0.931-0.151 1.194 0.247 0.103 0.156 0.207 0.313 0.312 0.468C20.066 70.854 19.963 71.391 19.569 71.658zM20.06 29.16c-0.108 0.154-0.214 0.31-0.32 0.467-0.166 0.246-0.438 0.379-0.714 0.379-0.166 0-0.334-0.048-0.482-0.148-0.394-0.266-0.498-0.802-0.231-1.197 0.109-0.161 0.22-0.323 0.332-0.485 0.271-0.391 0.809-0.487 1.199-0.216C20.235 28.232 20.332 28.769 20.06 29.16zM87.637 43.432c0.033 0.194 0.065 0.387 0.096 0.581 0.074 0.472-0.248 0.913-0.718 0.986-0.045 0.006-0.09 0.009-0.134 0.009-0.418 0-0.784-0.303-0.85-0.728-0.029-0.187-0.06-0.371-0.091-0.556-0.081-0.469 0.234-0.915 0.703-0.995C87.114 42.651 87.556 42.963 87.637 43.432zM84.888 36.645c0.447-0.158 0.941 0.073 1.102 0.522 0.066 0.185 0.131 0.371 0.194 0.559 0.153 0.45-0.089 0.94-0.54 1.091-0.092 0.031-0.185 0.046-0.276 0.046-0.359 0-0.694-0.226-0.816-0.585-0.06-0.178-0.122-0.354-0.185-0.531C84.207 37.298 84.44 36.804 84.888 36.645zM68.767 17.704c0.249-0.407 0.779-0.533 1.185-0.285 0.167 0.104 0.334 0.208 0.501 0.314 0.402 0.255 0.521 0.787 0.266 1.189-0.165 0.258-0.443 0.4-0.728 0.4-0.158 0-0.318-0.043-0.461-0.135-0.159-0.1-0.319-0.2-0.479-0.298C68.645 18.64 68.518 18.109 68.767 17.704zM63.04 14.993c0.177-0.443 0.68-0.657 1.119-0.482 0.184 0.074 0.366 0.148 0.548 0.224 0.44 0.182 0.647 0.687 0.465 1.126-0.138 0.331-0.458 0.531-0.796 0.531-0.11 0-0.222-0.021-0.33-0.066-0.174-0.073-0.349-0.144-0.523-0.213C63.08 15.937 62.864 15.436 63.04 14.993zM56.936 13.296c0.098-0.466 0.558-0.759 1.022-0.664 0.192 0.04 0.384 0.083 0.576 0.126 0.464 0.107 0.754 0.568 0.649 1.032-0.091 0.399-0.447 0.67-0.84 0.67-0.063 0-0.127-0.005-0.192-0.021-0.183-0.042-0.367-0.083-0.55-0.122C57.135 14.219 56.837 13.762 56.936 13.296zM51.533 11.832c0.196 0.008 0.393 0.017 0.588 0.027 0.475 0.028 0.839 0.434 0.813 0.909-0.026 0.459-0.406 0.813-0.86 0.813-0.016 0-0.032 0-0.048-0.001-0.187-0.011-0.375-0.019-0.563-0.027-0.475-0.02-0.845-0.42-0.826-0.897C50.656 12.183 51.039 11.807 51.533 11.832zM45.062 12.118c0.195-0.025 0.391-0.049 0.587-0.071 0.471-0.058 0.899 0.287 0.952 0.76 0.054 0.473-0.287 0.899-0.76 0.951-0.186 0.021-0.371 0.043-0.557 0.067-0.037 0.005-0.075 0.007-0.112 0.007-0.426 0-0.797-0.315-0.853-0.75C44.257 12.611 44.59 12.179 45.062 12.118zM38.733 13.49c0.187-0.057 0.376-0.113 0.565-0.169 0.453-0.129 0.935 0.13 1.069 0.586 0.133 0.457-0.129 0.935-0.586 1.069-0.18 0.053-0.36 0.107-0.539 0.161-0.085 0.026-0.17 0.039-0.255 0.039-0.368 0-0.709-0.237-0.823-0.608C38.023 14.114 38.278 13.632 38.733 13.49zM32.73 15.919c0.174-0.088 0.35-0.175 0.526-0.262 0.427-0.209 0.944-0.031 1.152 0.396 0.209 0.428 0.032 0.944-0.396 1.153-0.168 0.083-0.336 0.166-0.503 0.25-0.125 0.063-0.258 0.093-0.389 0.093-0.314 0-0.618-0.173-0.769-0.473C32.136 16.652 32.306 16.134 32.73 15.919zM23.666 76.483c-0.166 0.161-0.381 0.24-0.596 0.24-0.226 0-0.453-0.089-0.622-0.265-0.136-0.141-0.27-0.283-0.403-0.426-0.325-0.347-0.307-0.893 0.041-1.218 0.347-0.325 0.893-0.307 1.218 0.04 0.128 0.137 0.258 0.274 0.388 0.411C24.022 75.609 24.01 76.154 23.666 76.483zM24.013 24.404c-0.132 0.134-0.262 0.268-0.392 0.404-0.169 0.178-0.396 0.267-0.623 0.267-0.214 0-0.429-0.08-0.595-0.239-0.344-0.329-0.357-0.874-0.027-1.218 0.136-0.143 0.273-0.284 0.411-0.424 0.336-0.34 0.881-0.342 1.219-0.008C24.344 23.52 24.348 24.065 24.013 24.404zM28.519 80.554c-0.169 0.229-0.43 0.35-0.694 0.35-0.178 0-0.357-0.054-0.511-0.168-0.158-0.117-0.315-0.235-0.471-0.353-0.379-0.287-0.452-0.828-0.164-1.207 0.288-0.379 0.829-0.454 1.207-0.164 0.15 0.113 0.3 0.227 0.452 0.339C28.72 79.632 28.801 80.172 28.519 80.554zM28.709 20.38c-0.152 0.109-0.303 0.22-0.453 0.331-0.154 0.116-0.335 0.171-0.514 0.171-0.263 0-0.523-0.12-0.692-0.348-0.285-0.38-0.205-0.921 0.177-1.205 0.157-0.117 0.316-0.234 0.476-0.349 0.385-0.277 0.925-0.189 1.203 0.196C29.183 19.564 29.095 20.101 28.709 20.38zM33.988 83.75c-0.151 0.301-0.455 0.474-0.77 0.474-0.131 0-0.263-0.03-0.388-0.092-0.176-0.09-0.35-0.179-0.525-0.27-0.422-0.221-0.584-0.742-0.364-1.164 0.221-0.422 0.743-0.584 1.163-0.364 0.167 0.088 0.334 0.173 0.503 0.259C34.032 82.807 34.202 83.326 33.988 83.75zM39.925 85.972c-0.113 0.371-0.455 0.611-0.824 0.611-0.083 0-0.168-0.012-0.251-0.037-0.189-0.058-0.376-0.117-0.564-0.177-0.453-0.145-0.704-0.629-0.558-1.083 0.145-0.453 0.632-0.703 1.083-0.559 0.18 0.057 0.36 0.114 0.541 0.169C39.806 85.035 40.063 85.517 39.925 85.972zM45.292 87.905c-0.036 0-0.072-0.002-0.109-0.007-0.195-0.024-0.389-0.05-0.584-0.077-0.471-0.067-0.799-0.503-0.733-0.975 0.066-0.471 0.506-0.797 0.974-0.733 0.186 0.027 0.373 0.051 0.559 0.074 0.472 0.061 0.806 0.491 0.747 0.964C46.091 87.587 45.719 87.905 45.292 87.905zM51.649 88.163c-0.196 0.009-0.391 0.015-0.587 0.021-0.007 0.001-0.015 0.001-0.023 0.001-0.465 0-0.849-0.371-0.861-0.84-0.013-0.475 0.363-0.871 0.839-0.883 0.187-0.005 0.375-0.012 0.562-0.02 0.472-0.034 0.877 0.351 0.896 0.826C52.495 87.744 52.125 88.145 51.649 88.163zM58.075 87.344c-0.192 0.04-0.384 0.081-0.578 0.119-0.057 0.012-0.113 0.017-0.169 0.017-0.403 0-0.762-0.284-0.844-0.693-0.093-0.468 0.21-0.921 0.677-1.014 0.184-0.037 0.368-0.074 0.551-0.114 0.462-0.097 0.923 0.195 1.024 0.66C58.836 86.785 58.54 87.243 58.075 87.344zM64.268 85.445c-0.182 0.074-0.364 0.145-0.547 0.216-0.102 0.04-0.208 0.058-0.311 0.058-0.345 0-0.671-0.208-0.803-0.55-0.172-0.445 0.048-0.943 0.492-1.115 0.176-0.068 0.351-0.137 0.525-0.207 0.441-0.178 0.943 0.036 1.121 0.477C64.923 84.765 64.709 85.267 64.268 85.445zM70.042 82.526c-0.167 0.103-0.334 0.204-0.501 0.304-0.139 0.082-0.291 0.122-0.442 0.122-0.293 0-0.579-0.15-0.74-0.42-0.244-0.409-0.111-0.938 0.298-1.182 0.161-0.096 0.322-0.194 0.482-0.292 0.405-0.25 0.936-0.124 1.185 0.282C70.574 81.746 70.447 82.276 70.042 82.526zM75.244 78.669c-0.147 0.13-0.294 0.259-0.443 0.386-0.163 0.139-0.362 0.207-0.56 0.207-0.243 0-0.484-0.102-0.655-0.3-0.31-0.361-0.268-0.905 0.093-1.215 0.143-0.123 0.285-0.247 0.427-0.371 0.357-0.315 0.903-0.279 1.216 0.079C75.637 77.811 75.601 78.356 75.244 78.669zM75.538 72.68c0.202 0.43 0.016 0.944-0.414 1.146-0.119 0.055-0.243 0.082-0.365 0.082-0.324 0-0.635-0.184-0.781-0.497C71.62 68.379 63.962 66.04 61.08 65.16c-1.411-0.433-1.887-0.577-1.887-1.293 0-0.341 0.201-0.65 0.513-0.788 6.295-2.788 6.321-8.128 6.295-8.83-0.092-0.763-0.316-1.574-0.722-2.429-2.662-5.593-6.085 2.17-6.085 2.17s-4.944-1.14-4.944 0c0-1.521 5.705-15.593-6.182-16.354-2.203-0.14-4.229-0.77-6.007-1.774-0.558 2.58-2.507 10.043-6.943 13.379 0.325 2.301 2.495 13.503 13.837 13.81 0.393 0.011 0.73 0.286 0.817 0.67 0.087 0.385-0.097 0.779-0.448 0.958-0.093 0.048-9.378 4.974-10.355 17.247-0.036 0.452-0.413 0.793-0.858 0.793-0.023 0-0.046-0.002-0.07-0.003-0.475-0.038-0.828-0.453-0.791-0.928 0.763-9.581 6.098-14.938 9.157-17.253C34.58 62.531 33.345 48.976 33.345 48.831c0-0.289 0.144-0.557 0.384-0.717C38.401 45 40.264 36.11 40.51 34.836c-2.292-1.734-4.046-4.157-5.042-6.979-0.268-0.761 0.429-1.461 1.21-1.26 0.006 0.003 0.013 0.004 0.019 0.005 0.944 0.235 1.935 0.104 2.898-0.027 9.024-1.234 19.241-4.247 27.474 1.268 7.925 5.309 11.484 18.158 5.783 26.338-1.136 1.629-3.332 3.697-5.714 5.168-0.264 0.163-0.544 0.205-0.805 0.165-0.788 1.388-2.06 2.919-4.119 4.191C65.662 64.776 73.022 67.31 75.538 72.68zM75.67 22.872c-0.17 0.188-0.405 0.284-0.64 0.284-0.206 0-0.412-0.073-0.577-0.221-0.139-0.126-0.28-0.251-0.421-0.376-0.358-0.314-0.394-0.858-0.08-1.216 0.313-0.359 0.858-0.394 1.216-0.081 0.148 0.13 0.295 0.26 0.44 0.391C75.961 21.973 75.989 22.517 75.67 22.872zM79.726 73.993c-0.124 0.152-0.249 0.305-0.375 0.457-0.17 0.203-0.415 0.309-0.661 0.309-0.195 0-0.391-0.066-0.553-0.201-0.365-0.306-0.413-0.849-0.108-1.215 0.12-0.143 0.239-0.288 0.356-0.434 0.3-0.37 0.841-0.427 1.212-0.128C79.967 73.081 80.025 73.623 79.726 73.993zM79.883 27.598c-0.157 0.124-0.345 0.184-0.531 0.184-0.256 0-0.509-0.114-0.679-0.33-0.115-0.146-0.232-0.293-0.349-0.437-0.301-0.37-0.245-0.913 0.124-1.212 0.369-0.302 0.911-0.246 1.212 0.123 0.124 0.153 0.248 0.307 0.37 0.463C80.323 26.762 80.258 27.304 79.883 27.598zM83.356 68.629c-0.096 0.171-0.193 0.342-0.292 0.511-0.16 0.277-0.449 0.43-0.746 0.43-0.147 0-0.295-0.037-0.431-0.116-0.412-0.238-0.552-0.766-0.314-1.178 0.094-0.162 0.188-0.327 0.28-0.491 0.234-0.416 0.758-0.563 1.173-0.329C83.442 67.688 83.589 68.215 83.356 68.629zM83.243 32.962c-0.131 0.071-0.272 0.105-0.411 0.105-0.306 0-0.602-0.163-0.758-0.451-0.089-0.163-0.179-0.326-0.271-0.489-0.234-0.414-0.089-0.94 0.326-1.174 0.414-0.234 0.939-0.09 1.174 0.325 0.097 0.17 0.192 0.343 0.286 0.515C83.816 32.211 83.661 32.735 83.243 32.962zM86.029 62.724c-0.066 0.185-0.133 0.369-0.201 0.553-0.128 0.348-0.458 0.564-0.808 0.564-0.099 0-0.199-0.017-0.298-0.054-0.447-0.164-0.675-0.66-0.511-1.106 0.066-0.178 0.13-0.356 0.193-0.534 0.16-0.448 0.653-0.682 1.101-0.524C85.954 61.783 86.188 62.274 86.029 62.724zM87.553 57.033c-0.078 0.414-0.44 0.703-0.846 0.703-0.053 0-0.106-0.004-0.16-0.014-0.468-0.089-0.776-0.539-0.688-1.006 0.035-0.184 0.067-0.37 0.099-0.555 0.081-0.467 0.525-0.784 0.995-0.703 0.469 0.081 0.784 0.525 0.704 0.995C87.623 56.647 87.588 56.841 87.553 57.033zM88.195 50.588c-0.007 0.472-0.392 0.85-0.862 0.85-0.004 0-0.008 0-0.012 0-0.476-0.007-0.856-0.399-0.849-0.874 0.003-0.188 0.005-0.376 0.005-0.564v-0.114c0-0.476 0.386-0.862 0.862-0.862 0.476 0 0.861 0.386 0.861 0.862V50C88.199 50.197 88.198 50.392 88.195 50.588z" fill="#338f47" data-fill-palette-color="accent"></path></g></svg></g></svg></g></svg></g><defs></defs></svg><rect width="395.52" height="86.07588768481237" fill="none" stroke="none" visibility="hidden"></rect></g></svg></g></svg>